<svg width="22" height="24" viewBox="0 0 22 24" fill="none" xmlns="http://www.w3.org/2000/svg">
<path fill-rule="evenodd" clip-rule="evenodd" d="M2.60424 14.5623L2.14982 15.0168C2.01063 15.1559 1.94096 15.2259 1.8855 15.3031C1.78068 15.4491 1.71125 15.6172 1.68215 15.7945C1.66675 15.8884 1.66675 15.9868 1.66675 16.1836C1.66675 16.6012 1.66675 16.8249 1.71572 17H20.2841C20.3331 16.8249 20.3331 16.6012 20.3331 16.1836C20.3331 15.9868 20.3329 15.8884 20.3175 15.7945C20.2884 15.6172 20.2195 15.4491 20.1147 15.3031C20.0594 15.226 19.989 15.1556 19.8502 15.0168L19.8502 15.0168L19.3957 14.5623C19.2491 14.4157 19.1667 14.2168 19.1667 14.0095V9.66667C19.1667 5.15633 15.5104 1.49999 11.0001 1.5C6.48976 1.50001 2.83341 5.15635 2.83341 9.66667V14.0095C2.83341 14.2169 2.75087 14.4157 2.60424 14.5623ZM14.3551 20H7.64502C8.07529 21.4457 9.41457 22.5 11.0001 22.5C12.5856 22.5 13.9249 21.4457 14.3551 20Z" fill="white"/>
<path d="M2.14982 15.0168L1.44271 14.3097L1.44271 14.3097L2.14982 15.0168ZM2.60424 14.5623L3.31135 15.2694L3.31135 15.2694L2.60424 14.5623ZM1.8855 15.3031L2.69778 15.8864L2.69778 15.8864L1.8855 15.3031ZM1.68215 15.7945L0.695348 15.6326H0.695348L1.68215 15.7945ZM1.71572 17L0.752682 17.2694C0.873507 17.7013 1.26718 18 1.71572 18V17ZM20.2841 17V18C20.7327 18 21.1264 17.7013 21.2472 17.2693L20.2841 17ZM20.3175 15.7945L21.3043 15.6326L21.3043 15.6326L20.3175 15.7945ZM20.1147 15.3031L19.3024 15.8863L19.3024 15.8863L20.1147 15.3031ZM19.8502 15.0168L20.5574 14.3097L20.5573 14.3097L19.8502 15.0168ZM19.8502 15.0168L19.1431 15.7239L19.1431 15.7239L19.8502 15.0168ZM19.3957 14.5623L18.6886 15.2694L18.6886 15.2694L19.3957 14.5623ZM11.0001 1.5L11.0001 0.5L11.0001 1.5ZM14.3551 20L15.3136 20.2852C15.4037 19.9826 15.3455 19.6553 15.1568 19.4022C14.968 19.1491 14.6709 19 14.3551 19V20ZM7.64502 20V19C7.3293 19 7.03212 19.1491 6.84338 19.4022C6.65464 19.6553 6.59651 19.9826 6.68657 20.2852L7.64502 20ZM2.85693 15.7239L3.31135 15.2694L1.89714 13.8552L1.44271 14.3097L2.85693 15.7239ZM2.69778 15.8864C2.69157 15.895 2.69167 15.8929 2.71584 15.8671C2.74413 15.8369 2.78346 15.7973 2.85693 15.7239L1.44271 14.3097C1.32546 14.4269 1.18706 14.5613 1.07321 14.7199L2.69778 15.8864ZM2.66895 15.9565C2.67322 15.9305 2.6832 15.9067 2.69778 15.8864L1.07321 14.7199C0.878154 14.9915 0.749287 15.3039 0.695348 15.6326L2.66895 15.9565ZM2.66675 16.1836C2.66675 16.0792 2.66686 16.0236 2.66817 15.982C2.66929 15.9467 2.67075 15.9455 2.66895 15.9565L0.695348 15.6326C0.663677 15.8256 0.666748 16.0194 0.666748 16.1836H2.66675ZM2.67875 16.7306C2.68357 16.7478 2.67637 16.7336 2.67176 16.6357C2.667 16.5346 2.66675 16.4015 2.66675 16.1836H0.666748C0.666748 16.5331 0.657377 16.9287 0.752682 17.2694L2.67875 16.7306ZM1.71572 18H20.2841V16H1.71572V18ZM19.3331 16.1836C19.3331 16.4014 19.3328 16.5346 19.3281 16.6357C19.3235 16.7336 19.3163 16.7479 19.3211 16.7307L21.2472 17.2693C21.3425 16.9286 21.3331 16.5331 21.3331 16.1836H19.3331ZM19.3307 15.9564C19.329 15.9461 19.3304 15.9478 19.3316 15.9829C19.3329 16.0241 19.3331 16.0798 19.3331 16.1836H21.3331C21.3331 16.0174 21.3359 15.8251 21.3043 15.6326L19.3307 15.9564ZM19.3024 15.8863C19.3157 15.9048 19.326 15.9283 19.3307 15.9565L21.3043 15.6326C21.2507 15.3061 21.1234 14.9933 20.927 14.7198L19.3024 15.8863ZM19.1431 15.7239C19.2167 15.7975 19.2561 15.8371 19.2847 15.8676C19.3094 15.8938 19.3092 15.8958 19.3024 15.8863L20.927 14.7198C20.813 14.561 20.6728 14.4252 20.5574 14.3097L19.1431 15.7239ZM19.1431 15.7239L19.1431 15.7239L20.5573 14.3097L20.5573 14.3097L19.1431 15.7239ZM18.6886 15.2694L19.1431 15.7239L20.5573 14.3097L20.1029 13.8552L18.6886 15.2694ZM18.1667 14.0095C18.1667 14.4821 18.3545 14.9353 18.6886 15.2694L20.1029 13.8552C20.1438 13.8961 20.1667 13.9516 20.1667 14.0095H18.1667ZM18.1667 9.66667V14.0095H20.1667V9.66667H18.1667ZM11.0001 2.5C14.9581 2.49999 18.1667 5.70862 18.1667 9.66667H20.1667C20.1667 4.60405 16.0627 0.499988 11.0001 0.5L11.0001 2.5ZM3.83341 9.66667C3.83341 5.70864 7.04205 2.50001 11.0001 2.5L11.0001 0.5C5.93748 0.500012 1.83341 4.60406 1.83341 9.66667H3.83341ZM3.83341 14.0095V9.66667H1.83341V14.0095H3.83341ZM3.31135 15.2694C3.64509 14.9357 3.83341 14.4827 3.83341 14.0095H1.83341C1.83341 13.951 1.85664 13.8957 1.89713 13.8552L3.31135 15.2694ZM14.3551 19H7.64502V21H14.3551V19ZM11.0001 21.5C9.86905 21.5 8.91102 20.7481 8.60347 19.7148L6.68657 20.2852C7.23957 22.1434 8.96009 23.5 11.0001 23.5V21.5ZM13.3967 19.7148C13.0891 20.7481 12.1311 21.5 11.0001 21.5V23.5C13.0401 23.5 14.7606 22.1434 15.3136 20.2852L13.3967 19.7148Z" fill="white"/>
</svg>
