<svg width="36" height="20" viewBox="0 0 36 20" fill="none" xmlns="http://www.w3.org/2000/svg">
<path d="M4.66699 9.99992H11.3337M11.3337 9.99992L8.66699 7.33325M11.3337 9.99992L8.66699 12.6666" stroke="white" stroke-width="2" stroke-linecap="round" stroke-linejoin="round"/>
<path d="M19.333 6.66675H32.6663M19.333 6.66675V14.0002C19.333 14.9337 19.333 15.4001 19.5147 15.7567C19.6745 16.0703 19.9292 16.3255 20.2428 16.4853C20.599 16.6667 21.0655 16.6667 21.9971 16.6667H30.0022C30.9338 16.6667 31.3997 16.6667 31.7558 16.4853C32.0694 16.3255 32.3251 16.0703 32.4849 15.7567C32.6663 15.4005 32.6663 14.9347 32.6663 14.0031V6.66675M19.333 6.66675V6.00024C19.333 5.06682 19.333 4.59976 19.5147 4.24325C19.6745 3.92964 19.9292 3.67486 20.2428 3.51507C20.5994 3.33341 21.0664 3.33341 21.9998 3.33341H22.6663M32.6663 6.66675V5.99751C32.6663 5.06591 32.6663 4.59942 32.4849 4.24325C32.3251 3.92964 32.0694 3.67486 31.7558 3.51507C31.3993 3.33341 30.9333 3.33341 29.9998 3.33341H29.333M29.333 1.66675V3.33341M29.333 3.33341H22.6663M22.6663 1.66675V3.33341M20.4995 4L19.9995 5L20.9995 6.5L22.6663 3.82124L24.4995 4L22.9995 6L24.9995 6.00024L26.4995 3.82124L28.4995 4L26.9995 6L29.333 5.99751L30.094 4.24325H31.6325L30.9995 6" stroke="white" stroke-width="2" stroke-linecap="round" stroke-linejoin="round"/>
</svg>
