<svg width="36" height="20" viewBox="0 0 36 20" fill="none" xmlns="http://www.w3.org/2000/svg">
<path d="M3.33301 6.66675H16.6663M3.33301 6.66675V14.0002C3.33301 14.9337 3.33301 15.4001 3.51466 15.7567C3.67445 16.0703 3.92924 16.3255 4.24284 16.4853C4.59901 16.6667 5.0655 16.6667 5.9971 16.6667H14.0022C14.9338 16.6667 15.3997 16.6667 15.7558 16.4853C16.0694 16.3255 16.3251 16.0703 16.4849 15.7567C16.6663 15.4005 16.6663 14.9347 16.6663 14.0031V6.66675M3.33301 6.66675V6.00024C3.33301 5.06682 3.33301 4.59976 3.51466 4.24325C3.67445 3.92964 3.92924 3.67486 4.24284 3.51507C4.59936 3.33341 5.06642 3.33341 5.99984 3.33341H6.66634M16.6663 6.66675V5.99751C16.6663 5.06591 16.6663 4.59942 16.4849 4.24325C16.3251 3.92964 16.0694 3.67486 15.7558 3.51507C15.3993 3.33341 14.9333 3.33341 13.9998 3.33341H13.333M13.333 1.66675V3.33341M13.333 3.33341H6.66634M6.66634 1.66675V3.33341M4.49951 4L3.99951 5L4.99951 6.5L6.66634 3.82124L8.49951 4L6.99951 6L8.99951 6.00024L10.4995 3.82124L12.4995 4L10.9995 6L13.333 5.99751L14.094 4.24325H15.6325L14.9995 6" stroke="white" stroke-width="2" stroke-linecap="round" stroke-linejoin="round"/>
<path d="M24.667 9.99992H31.3337M31.3337 9.99992L28.667 7.33325M31.3337 9.99992L28.667 12.6666" stroke="white" stroke-width="2" stroke-linecap="round" stroke-linejoin="round"/>
</svg>
