<svg width="10" height="11" viewBox="0 0 10 11" fill="none" xmlns="http://www.w3.org/2000/svg">
<path d="M1 4H9M1 4V8.4001C1 8.96015 1 9.24003 1.10899 9.45394C1.20487 9.6421 1.35774 9.79524 1.5459 9.89111C1.7596 10 2.0395 10 2.59846 10H7.40155C7.9605 10 8.23999 10 8.4537 9.89111C8.64186 9.79524 8.79524 9.6421 8.89111 9.45394C9 9.24024 9 8.96075 9 8.40179V4M1 4V3.6001C1 3.04005 1 2.75981 1.10899 2.5459C1.20487 2.35774 1.35774 2.20487 1.5459 2.10899C1.75981 2 2.04005 2 2.6001 2H3M9 4V3.59845C9 3.0395 9 2.7596 8.89111 2.5459C8.79524 2.35774 8.64186 2.20487 8.4537 2.10899C8.23979 2 7.96015 2 7.4001 2H7M7 1V2M7 2H3M3 1V2" stroke="#EAEAEA" stroke-width="2" stroke-linecap="round" stroke-linejoin="round"/>
</svg>
