<svg width="12" height="12" viewBox="0 0 12 12" fill="none" xmlns="http://www.w3.org/2000/svg">
<path d="M5.61738 1.18696C5.43361 1.26308 5.26886 1.42783 4.9394 1.75729C4.61001 2.08667 4.4452 2.25149 4.36909 2.43524C4.2676 2.68026 4.2676 2.9556 4.36909 3.20063C4.44521 3.3844 4.60995 3.54914 4.93942 3.87861C5.2687 4.20789 5.43365 4.37284 5.61736 4.44894C5.86239 4.55043 6.13773 4.55043 6.38276 4.44894C6.56653 4.37282 6.73127 4.20808 7.06074 3.87861C7.39021 3.54914 7.55446 3.3844 7.63058 3.20063C7.73207 2.9556 7.73207 2.68026 7.63058 2.43524C7.55446 2.25146 7.39021 2.08676 7.06074 1.75729C6.73127 1.42782 6.56653 1.26308 6.38276 1.18696C6.13773 1.08547 5.86241 1.08547 5.61738 1.18696Z" fill="white"/>
<path d="M2.43525 4.36884C2.25148 4.44497 2.08674 4.6097 1.75727 4.93917C1.4279 5.26855 1.26307 5.43338 1.18696 5.61712C1.08547 5.86215 1.08547 6.13749 1.18696 6.38252C1.26308 6.56629 1.42782 6.73103 1.75729 7.06049C2.08657 7.38978 2.25152 7.55472 2.43524 7.63082C2.68026 7.73232 2.9556 7.73232 3.20063 7.63082C3.3844 7.5547 3.54914 7.38997 3.87861 7.0605C4.20808 6.73103 4.37233 6.56629 4.44845 6.38252C4.54994 6.13749 4.54994 5.86215 4.44845 5.61712C4.37233 5.43335 4.20808 5.26864 3.87861 4.93917C3.54914 4.6097 3.3844 4.44497 3.20063 4.36884C2.9556 4.26735 2.68028 4.26735 2.43525 4.36884Z" fill="white"/>
<path d="M8.12153 4.93917C7.79215 5.26856 7.62733 5.43337 7.55122 5.61712C7.44972 5.86215 7.44972 6.13749 7.55122 6.38252C7.62734 6.56629 7.79208 6.73102 8.12154 7.06049C8.45082 7.38977 8.61578 7.55472 8.79949 7.63082C9.04452 7.73232 9.31986 7.73232 9.56489 7.63082C9.74866 7.5547 9.9134 7.38997 10.2429 7.0605C10.5723 6.73103 10.7366 6.56629 10.8127 6.38252C10.9142 6.13749 10.9142 5.86215 10.8127 5.61712C10.7366 5.43335 10.5723 5.26864 10.2429 4.93917C9.9134 4.6097 9.74866 4.44497 9.56489 4.36884C9.31986 4.26735 9.04454 4.26735 8.79951 4.36884C8.61574 4.44496 8.451 4.60971 8.12153 4.93917Z" fill="white"/>
<path d="M5.61738 7.55097C5.43361 7.62709 5.26887 7.79183 4.9394 8.1213C4.61002 8.45068 4.4452 8.6155 4.36909 8.79925C4.2676 9.04428 4.2676 9.31962 4.36909 9.56465C4.44521 9.74842 4.60995 9.91315 4.93942 10.2426C5.2687 10.5719 5.43365 10.7369 5.61736 10.813C5.86239 10.9144 6.13773 10.9144 6.38276 10.813C6.56653 10.7368 6.73127 10.5721 7.06074 10.2426C7.39021 9.91315 7.55446 9.74842 7.63058 9.56465C7.73207 9.31962 7.73207 9.04428 7.63058 8.79925C7.55446 8.61548 7.39021 8.45077 7.06074 8.1213C6.73127 7.79183 6.56653 7.62709 6.38276 7.55097C6.13773 7.44948 5.86241 7.44948 5.61738 7.55097Z" fill="white"/>
<path d="M5.61738 1.18696C5.43361 1.26308 5.26886 1.42783 4.9394 1.75729C4.61001 2.08667 4.4452 2.25149 4.36909 2.43524C4.2676 2.68026 4.2676 2.9556 4.36909 3.20063C4.44521 3.3844 4.60995 3.54914 4.93942 3.87861C5.2687 4.20789 5.43365 4.37284 5.61736 4.44894C5.86239 4.55043 6.13773 4.55043 6.38276 4.44894C6.56653 4.37282 6.73127 4.20808 7.06074 3.87861C7.39021 3.54914 7.55446 3.3844 7.63058 3.20063C7.73207 2.9556 7.73207 2.68026 7.63058 2.43524C7.55446 2.25146 7.39021 2.08676 7.06074 1.75729C6.73127 1.42782 6.56653 1.26308 6.38276 1.18696C6.13773 1.08547 5.86241 1.08547 5.61738 1.18696Z" stroke="white" stroke-width="0.5" stroke-linecap="round" stroke-linejoin="round"/>
<path d="M2.43525 4.36884C2.25148 4.44497 2.08674 4.6097 1.75727 4.93917C1.4279 5.26855 1.26307 5.43338 1.18696 5.61712C1.08547 5.86215 1.08547 6.13749 1.18696 6.38252C1.26308 6.56629 1.42782 6.73103 1.75729 7.06049C2.08657 7.38978 2.25152 7.55472 2.43524 7.63082C2.68026 7.73232 2.9556 7.73232 3.20063 7.63082C3.3844 7.5547 3.54914 7.38997 3.87861 7.0605C4.20808 6.73103 4.37233 6.56629 4.44845 6.38252C4.54994 6.13749 4.54994 5.86215 4.44845 5.61712C4.37233 5.43335 4.20808 5.26864 3.87861 4.93917C3.54914 4.6097 3.3844 4.44497 3.20063 4.36884C2.9556 4.26735 2.68028 4.26735 2.43525 4.36884Z" stroke="white" stroke-width="0.5" stroke-linecap="round" stroke-linejoin="round"/>
<path d="M8.12153 4.93917C7.79215 5.26856 7.62733 5.43337 7.55122 5.61712C7.44972 5.86215 7.44972 6.13749 7.55122 6.38252C7.62734 6.56629 7.79208 6.73102 8.12154 7.06049C8.45082 7.38977 8.61578 7.55472 8.79949 7.63082C9.04452 7.73232 9.31986 7.73232 9.56489 7.63082C9.74866 7.5547 9.9134 7.38997 10.2429 7.0605C10.5723 6.73103 10.7366 6.56629 10.8127 6.38252C10.9142 6.13749 10.9142 5.86215 10.8127 5.61712C10.7366 5.43335 10.5723 5.26864 10.2429 4.93917C9.9134 4.6097 9.74866 4.44497 9.56489 4.36884C9.31986 4.26735 9.04454 4.26735 8.79951 4.36884C8.61574 4.44496 8.451 4.60971 8.12153 4.93917Z" stroke="white" stroke-width="0.5" stroke-linecap="round" stroke-linejoin="round"/>
<path d="M5.61738 7.55097C5.43361 7.62709 5.26887 7.79183 4.9394 8.1213C4.61002 8.45068 4.4452 8.6155 4.36909 8.79925C4.2676 9.04428 4.2676 9.31962 4.36909 9.56465C4.44521 9.74842 4.60995 9.91315 4.93942 10.2426C5.2687 10.5719 5.43365 10.7369 5.61736 10.813C5.86239 10.9144 6.13773 10.9144 6.38276 10.813C6.56653 10.7368 6.73127 10.5721 7.06074 10.2426C7.39021 9.91315 7.55446 9.74842 7.63058 9.56465C7.73207 9.31962 7.73207 9.04428 7.63058 8.79925C7.55446 8.61548 7.39021 8.45077 7.06074 8.1213C6.73127 7.79183 6.56653 7.62709 6.38276 7.55097C6.13773 7.44948 5.86241 7.44948 5.61738 7.55097Z" stroke="white" stroke-width="0.5" stroke-linecap="round" stroke-linejoin="round"/>
</svg>
