<svg width="35" height="35" viewBox="0 0 35 35" fill="none" xmlns="http://www.w3.org/2000/svg">
<path d="M7.89357 0.0454134C9.98456 0.0434997 11.9907 0.882154 13.4705 2.37689C14.9504 3.87162 15.7829 5.89998 15.7848 8.01577C15.7867 10.1316 14.9578 12.1614 13.4806 13.6589C12.0034 15.1563 9.99882 15.9986 7.90783 16.0006C3.53713 16.0294 -0.00316735 12.4263 2.12646e-06 7.95082C0.00475634 3.59563 3.55139 0.0454134 7.89357 0.0454134Z" fill="black"/>
<path d="M27.1496 0.237137C29.1643 0.237137 31.1774 0.244996 33.192 0.237137C33.9438 0.237137 34.5028 0.523205 34.7958 1.20538C35.0889 1.88755 34.9678 2.53357 34.447 3.09157C33.2632 4.35951 32.083 5.6306 30.9066 6.90483C30.2186 7.64988 30.2202 8.57411 30.9066 9.3223C32.0963 10.6112 33.2956 11.8907 34.4837 13.1811C34.7638 13.4756 34.9282 13.8591 34.9472 14.2626C34.9662 14.666 34.8385 15.0629 34.5872 15.3817C34.4266 15.5871 34.2176 15.7506 33.9783 15.858C33.739 15.9654 33.4767 16.0134 33.2143 15.9979H21.1645C20.2185 15.9979 19.6165 15.5703 19.4126 14.7404C19.3375 14.4656 19.336 14.1762 19.4083 13.9007C19.4806 13.6251 19.6242 13.3728 19.8251 13.1686C20.9803 11.9111 22.136 10.6573 23.2922 9.40718C24.0742 8.56311 24.0886 7.67817 23.3098 6.83567C22.1487 5.57821 20.9829 4.32074 19.8251 3.05228C19.0734 2.23021 19.2502 0.94917 20.2026 0.444613C20.4748 0.311782 20.7748 0.243948 21.0785 0.246568C23.1027 0.229278 25.1254 0.237137 27.1496 0.237137Z" fill="black"/>
<path d="M20.6705 18.2235C19.8403 18.2235 19.1672 18.9038 19.1672 19.743V29.4342C19.1672 30.2735 19.8403 30.9538 20.6705 30.9538C21.4301 30.9538 22.0459 31.5762 22.0459 32.344V32.5259C22.0459 33.3651 22.719 34.0454 23.5492 34.0454H30.618C31.4482 34.0454 32.1213 33.3651 32.1213 32.5259V32.344C32.1213 31.5762 32.7371 30.9538 33.4967 30.9538C34.3269 30.9538 35 30.2735 35 29.4342V19.743C35 18.9038 34.3269 18.2235 33.4967 18.2235H20.6705Z" fill="black"/>
<path d="M10.7256 18.2936C10.1754 18.2936 9.65886 18.5614 9.33786 19.0131C9.22195 19.1777 9.04351 19.3161 8.82257 19.4129C8.60163 19.5097 8.34695 19.561 8.08712 19.561C7.82729 19.561 7.5726 19.5097 7.35167 19.4129C7.13073 19.3161 6.95228 19.1777 6.83637 19.0131C6.51492 18.5614 5.99806 18.2936 5.44757 18.2936H1.87914C1.04888 18.2936 0.375827 18.9739 0.375827 19.8132V32.5259C0.375827 33.3651 1.04888 34.0454 1.87914 34.0454H2.2661C3.00486 34.0454 3.68172 33.6283 4.02005 32.9644C4.10325 32.7997 4.23134 32.6611 4.38993 32.5642C4.54851 32.4674 4.73132 32.416 4.91783 32.416C5.10433 32.416 5.28714 32.4674 5.44573 32.5642C5.60431 32.6611 5.7324 32.7997 5.8156 32.9644C6.15441 33.6283 6.83159 34.0454 7.57063 34.0454H8.50305C9.2418 34.0454 9.91867 33.6283 10.257 32.9644C10.3402 32.7997 10.4683 32.6611 10.6269 32.5642C10.7855 32.4674 10.9683 32.416 11.1548 32.416C11.3413 32.416 11.5241 32.4674 11.6827 32.5642C11.8413 32.6611 11.9693 32.7997 12.0525 32.9644C12.3914 33.6283 13.0685 34.0454 13.8076 34.0454H14.2815C15.1117 34.0454 15.7848 33.3651 15.7848 32.5259V19.8132C15.7848 18.9739 15.1117 18.2936 14.2815 18.2936H10.7256Z" fill="black"/>
<path d="M7.89403 0.545413L7.89357 0.545414C3.82854 0.545413 0.50456 3.87085 0.500002 7.95118L7.89403 0.545413ZM7.89403 0.545413C9.85049 0.543623 11.7287 1.32827 13.1152 2.72867C14.5019 4.12927 15.283 6.03115 15.2848 8.01621C15.2865 10.0013 14.5089 11.9046 13.1247 13.3077C11.7407 14.7107 9.86384 15.4988 7.90738 15.5005L7.90453 15.5006M7.89403 0.545413L7.90453 15.5006M7.90453 15.5006C3.82257 15.5275 0.497122 12.1604 0.500002 7.95137L7.90453 15.5006ZM30.5392 9.66144L30.5382 9.66032C30.1245 9.2094 29.8915 8.6748 29.8912 8.11263C29.8909 7.55016 30.1237 7.01566 30.5392 6.56566L30.5392 9.66144ZM30.5392 9.66144C31.0924 10.2608 31.6434 10.8535 32.1937 11.4455C32.8345 12.1348 33.4744 12.8231 34.1158 13.5198L34.1158 13.5198M30.5392 9.66144L34.1158 13.5198M34.1158 13.5198L34.1215 13.5258M34.1158 13.5198L34.1215 13.5258M34.1215 13.5258C34.3193 13.7338 34.4345 14.0035 34.4478 14.286C34.4611 14.5686 34.3717 14.8474 34.1945 15.0721L34.1933 15.0738M34.1215 13.5258L34.1933 15.0738M34.1933 15.0738C34.0831 15.2147 33.9391 15.3276 33.7736 15.4019C33.608 15.4762 33.4261 15.5095 33.244 15.4987L33.2292 15.4979M34.1933 15.0738L33.2292 15.4979M33.2292 15.4979H33.2143M33.2292 15.4979H33.2143M33.2143 15.4979H21.1645C20.7646 15.4979 20.4883 15.4077 20.3013 15.2738C20.1196 15.1438 19.9765 14.9402 19.8982 14.6211L19.8983 14.6211M33.2143 15.4979L19.8983 14.6211M19.8983 14.6211L19.8949 14.6085M19.8983 14.6211L19.8949 14.6085M19.8949 14.6085C19.8429 14.4184 19.8419 14.2182 19.8919 14.0276C19.942 13.8369 20.0415 13.6616 20.1816 13.5191L20.1876 13.5131M19.8949 14.6085L20.1876 13.5131M20.1876 13.5131L20.1933 13.5068M20.1876 13.5131L20.1933 13.5068M20.1933 13.5068C21.3481 12.2498 22.5034 10.9964 23.6593 9.74669C24.1066 9.26382 24.3808 8.71777 24.3863 8.12545C24.3918 7.53117 24.1259 6.98193 23.6769 6.49627C23.4348 6.234 23.1925 5.97186 22.9503 5.7097C22.0301 4.71398 21.1099 3.71814 20.1944 2.71519L20.1941 2.71486M20.1933 13.5068L20.1941 2.71486M20.1941 2.71486C19.643 2.11216 19.8004 1.22954 20.4294 0.890282C20.6299 0.793936 20.8506 0.74462 21.0742 0.74655V0.746623M20.1941 2.71486L21.0742 0.746623M21.0742 0.746623L21.0828 0.74655M21.0742 0.746623L21.0828 0.74655M21.0828 0.74655C22.6224 0.733399 24.1605 0.734821 25.7017 0.736245C26.184 0.736691 26.6666 0.737137 27.1496 0.737137C27.8198 0.737137 28.4905 0.738009 29.1616 0.738882M21.0828 0.74655L29.1616 0.738882M6.26133 32.7379C6.13586 32.49 5.94344 32.2823 5.70637 32.1375C5.469 31.9925 5.19594 31.916 4.91783 31.916C4.63971 31.916 4.36666 31.9925 4.12928 32.1375C3.89209 32.2824 3.69957 32.4902 3.57411 32.7383C3.32007 33.2359 2.81449 33.5454 2.2661 33.5454H1.87914C1.33008 33.5454 0.875827 33.094 0.875827 32.5259V19.8132C0.875827 19.245 1.33008 18.7936 1.87914 18.7936H5.44757C5.83457 18.7936 6.19992 18.9816 6.42841 19.3022C6.60643 19.5544 6.8636 19.745 7.15103 19.8709L7.35167 19.4129L12.0525 32.9644L12.4989 32.739C12.4987 32.7387 12.4985 32.7383 12.4983 32.7379C12.3728 32.49 12.1804 32.2823 11.9433 32.1375C11.7059 31.9925 11.4329 31.916 11.1548 31.916C10.8766 31.916 10.6036 31.9925 10.3662 32.1375C10.1288 32.2826 9.93614 32.4906 9.81068 32.739L10.257 32.9644L9.81152 32.7374C9.55763 33.2355 9.05177 33.5454 8.50305 33.5454H7.57063C7.0218 33.5454 6.51578 33.2358 6.26133 32.7379ZM6.26133 32.7379C6.26152 32.7383 6.26172 32.7387 6.26191 32.739L5.8156 32.9644L6.26095 32.7372C6.26108 32.7374 6.2612 32.7376 6.26133 32.7379ZM29.1616 0.738882C30.5047 0.740628 31.849 0.742376 33.193 0.737137M29.1616 0.738882L33.193 0.737137M33.193 0.737137C33.5071 0.737255 33.7414 0.797218 33.9151 0.897968C34.0829 0.995267 34.2277 1.14973 34.3364 1.40273C34.4495 1.66588 34.4733 1.89754 34.435 2.10382C34.3965 2.31124 34.2886 2.52853 34.0815 2.75042C32.897 4.019 31.7163 5.29074 30.5393 6.56561L33.193 0.737137ZM19.6672 19.743C19.6672 19.1749 20.1215 18.7235 20.6705 18.7235H33.4967C34.0457 18.7235 34.5 19.1749 34.5 19.743V29.4342C34.5 30.0024 34.0457 30.4538 33.4967 30.4538C32.4559 30.4538 31.6213 31.3052 31.6213 32.344V32.5259C31.6213 33.094 31.167 33.5454 30.618 33.5454H23.5492C23.0002 33.5454 22.5459 33.094 22.5459 32.5259V32.344C22.5459 31.3052 21.7113 30.4538 20.6705 30.4538C20.1215 30.4538 19.6672 30.0024 19.6672 29.4342V19.743Z" stroke="white" stroke-opacity="0.1"/>
</svg>
