<svg width="8" height="10" viewBox="0 0 8 10" fill="none" xmlns="http://www.w3.org/2000/svg">
<path fill-rule="evenodd" clip-rule="evenodd" d="M3.56159 9.16261C2.62224 8.39346 0.5 6.38734 0.5 3.96143C0.5 3.04337 0.868749 2.16308 1.52513 1.51392C2.1815 0.864752 3.07178 0.5 4.00004 0.5C4.9283 0.5 5.81848 0.864697 6.47485 1.51386C7.13123 2.16303 7.49996 3.04359 7.49996 3.96165C7.49996 6.38756 5.37783 8.39354 4.43848 9.16268C4.30353 9.27317 4.23598 9.32832 4.1355 9.35662C4.0574 9.3786 3.94245 9.3786 3.86435 9.35662C3.76406 9.32838 3.69603 9.27268 3.56159 9.16261ZM4.00012 4.49997C3.44784 4.49997 3.00012 4.05225 3.00012 3.49997C3.00012 2.94768 3.44784 2.49997 4.00012 2.49997C4.55241 2.49997 5.00012 2.94768 5.00012 3.49997C5.00012 4.05225 4.55241 4.49997 4.00012 4.49997Z" fill="white"/>
</svg>
