<svg width="28" height="28" viewBox="0 0 28 28" fill="none" xmlns="http://www.w3.org/2000/svg">
<path d="M6.31486 2.69135e-06C7.98764 -0.00157333 9.59252 0.689082 10.7764 1.92004C11.9603 3.15099 12.6263 4.82141 12.6278 6.56381C12.6293 8.30622 11.9663 9.97789 10.7845 11.2111C9.60273 12.4443 7.99905 13.1379 6.32627 13.1395C2.8297 13.1633 -0.00253388 10.196 1.70116e-06 6.51033C0.00380507 2.92371 2.84112 2.69135e-06 6.31486 2.69135e-06Z" fill="white"/>
<path d="M21.7197 0.157892C23.3314 0.157892 24.9419 0.164365 26.5536 0.157892C27.155 0.157892 27.6022 0.393477 27.8367 0.955266C28.0711 1.51706 27.9743 2.04907 27.5576 2.5086C26.6105 3.55278 25.6664 4.59956 24.7253 5.64892C24.1749 6.26249 24.1761 7.02363 24.7253 7.63978C25.677 8.70123 26.6364 9.7549 27.5869 10.8176C27.8111 11.0601 27.9426 11.3759 27.9578 11.7082C27.9729 12.0405 27.8708 12.3673 27.6697 12.6299C27.5413 12.799 27.3741 12.9337 27.1826 13.0221C26.9912 13.1106 26.7814 13.1501 26.5715 13.1373H16.9316C16.1748 13.1373 15.6932 12.7852 15.5301 12.1017C15.47 11.8754 15.4688 11.6371 15.5266 11.4102C15.5845 11.1833 15.6994 10.9755 15.8601 10.8073C16.7842 9.77173 17.7088 8.7392 18.6338 7.70968C19.2594 7.01457 19.2709 6.28579 18.6478 5.59197C17.719 4.55641 16.7864 3.52086 15.8601 2.47624C15.2587 1.79924 15.4001 0.744272 16.162 0.328755C16.3798 0.219365 16.6199 0.163502 16.8628 0.165659C18.4822 0.151421 20.1003 0.157892 21.7197 0.157892Z" fill="white"/>
<path d="M16.5364 14.9702C15.8722 14.9702 15.3338 15.5304 15.3338 16.2216V24.2025C15.3338 24.8937 15.8722 25.4539 16.5364 25.4539C17.1441 25.4539 17.6367 25.9665 17.6367 26.5988V26.7486C17.6367 27.4397 18.1752 28 18.8394 28H24.4944C25.1586 28 25.697 27.4397 25.697 26.7486V26.5988C25.697 25.9665 26.1896 25.4539 26.7973 25.4539C27.4615 25.4539 28 24.8937 28 24.2025V16.2216C28 15.5304 27.4615 14.9702 26.7973 14.9702H16.5364Z" fill="white"/>
<path d="M8.58046 15.0279C8.14031 15.0279 7.72708 15.2484 7.47029 15.6204C7.37756 15.756 7.2348 15.87 7.05805 15.9497C6.8813 16.0294 6.67756 16.0716 6.46969 16.0716C6.26183 16.0716 6.05808 16.0294 5.88133 15.9497C5.70458 15.87 5.56183 15.756 5.4691 15.6204C5.21194 15.2484 4.79845 15.0279 4.35806 15.0279H1.50331C0.839106 15.0279 0.300662 15.5882 0.300662 16.2793V26.7486C0.300662 27.4397 0.839106 28 1.50331 28H1.81288C2.40388 28 2.94537 27.6564 3.21604 27.1097C3.2826 26.9741 3.38507 26.8599 3.51194 26.7802C3.63881 26.7004 3.78506 26.6581 3.93426 26.6581C4.08346 26.6581 4.22971 26.7004 4.35658 26.7802C4.48345 26.8599 4.58592 26.9741 4.65248 27.1097C4.92353 27.6565 5.46527 28 6.0565 28H6.80243C7.39344 28 7.93493 27.6564 8.2056 27.1097C8.27215 26.9741 8.37463 26.8599 8.5015 26.7802C8.62837 26.7004 8.77461 26.6581 8.92381 26.6581C9.07302 26.6581 9.21926 26.7004 9.34613 26.7802C9.473 26.8599 9.57547 26.9741 9.64203 27.1097C9.91308 27.6565 10.4548 28 11.0461 28H11.4252C12.0894 28 12.6278 27.4397 12.6278 26.7486V16.2793C12.6278 15.5882 12.0894 15.0279 11.4252 15.0279H8.58046Z" fill="white"/>
</svg>
