<svg width="24" height="25" viewBox="0 0 24 25" fill="none" xmlns="http://www.w3.org/2000/svg">
<path d="M5.41273 0.500002C6.84655 0.498651 8.22216 1.09064 9.23694 2.14575C10.2517 3.20085 10.8225 4.63264 10.8238 6.12613C10.8251 7.61962 10.2568 9.05248 9.24385 10.1095C8.23091 11.1665 6.85633 11.7611 5.42251 11.7624C2.42546 11.7828 -0.00217189 9.23943 1.45814e-06 6.08029C0.00326149 3.00604 2.43524 0.500002 5.41273 0.500002Z" fill="black"/>
<path d="M18.6169 0.635336C19.9984 0.635336 21.3788 0.640884 22.7602 0.635336C23.2757 0.635336 23.659 0.837266 23.86 1.3188C24.0609 1.80033 23.9779 2.25635 23.6208 2.65023C22.809 3.54525 21.9998 4.44248 21.1931 5.34194C20.7213 5.86785 20.7224 6.52026 21.1931 7.04839C22.0089 7.9582 22.8312 8.86135 23.6459 9.77227C23.838 9.9801 23.9508 10.2508 23.9638 10.5356C23.9768 10.8204 23.8893 11.1006 23.7169 11.3256C23.6068 11.4706 23.4635 11.586 23.2994 11.6618C23.1353 11.7377 22.9555 11.7715 22.7755 11.7605H14.5128C13.8641 11.7605 13.4513 11.4588 13.3115 10.8729C13.26 10.6789 13.259 10.4747 13.3085 10.2802C13.3581 10.0857 13.4566 9.90758 13.5944 9.7634C14.3865 8.87578 15.179 7.99075 15.9718 7.1083C16.508 6.51249 16.5179 5.88783 15.9838 5.29312C15.1877 4.4055 14.3883 3.51788 13.5944 2.62249C13.0789 2.04221 13.2001 1.13795 13.8532 0.78179C14.0398 0.688027 14.2456 0.640144 14.4538 0.641994C15.8419 0.629789 17.2288 0.635336 18.6169 0.635336Z" fill="black"/>
<path d="M14.1741 13.3316C13.6048 13.3316 13.1432 13.8118 13.1432 14.4042V21.245C13.1432 21.8374 13.6048 22.3177 14.1741 22.3177C14.6949 22.3177 15.1172 22.757 15.1172 23.299V23.4274C15.1172 24.0198 15.5787 24.5 16.148 24.5H20.9952C21.5645 24.5 22.026 24.0198 22.026 23.4274V23.299C22.026 22.757 22.4483 22.3177 22.9691 22.3177C23.5384 22.3177 24 21.8374 24 21.245V14.4042C24 13.8118 23.5384 13.3316 22.9691 13.3316H14.1741Z" fill="black"/>
<path d="M7.35468 13.3811C6.97741 13.3811 6.62321 13.5701 6.4031 13.8889C6.32362 14.0051 6.20126 14.1029 6.04976 14.1712C5.89826 14.2395 5.72362 14.2757 5.54545 14.2757C5.36728 14.2757 5.19264 14.2395 5.04114 14.1712C4.88964 14.1029 4.76728 14.0051 4.6878 13.8889C4.46737 13.5701 4.11296 13.3811 3.73548 13.3811H1.28855C0.719233 13.3811 0.25771 13.8613 0.25771 14.4537V23.4274C0.25771 24.0198 0.719233 24.5 1.28855 24.5H1.55389C2.06047 24.5 2.52461 24.2055 2.7566 23.7369C2.81365 23.6207 2.90149 23.5228 3.01023 23.4544C3.11898 23.3861 3.24433 23.3498 3.37222 23.3498C3.50011 23.3498 3.62547 23.3861 3.73421 23.4544C3.84296 23.5228 3.93078 23.6207 3.98784 23.7369C4.22017 24.2056 4.68452 24.5 5.19129 24.5H5.83066C6.33723 24.5 6.80137 24.2055 7.03337 23.7369C7.09042 23.6207 7.17825 23.5228 7.287 23.4544C7.39574 23.3861 7.52109 23.3498 7.64898 23.3498C7.77687 23.3498 7.90222 23.3861 8.01097 23.4544C8.11972 23.5228 8.20755 23.6207 8.2646 23.7369C8.49693 24.2056 8.96128 24.5 9.46804 24.5H9.793C10.3623 24.5 10.8238 24.0198 10.8238 23.4274V14.4537C10.8238 13.8613 10.3623 13.3811 9.793 13.3811H7.35468Z" fill="black"/>
<path d="M5.4132 1L5.41273 1C2.72591 1 0.503083 3.2675 0.500001 6.08063L5.4132 1ZM5.4132 1C6.70768 0.998782 7.95393 1.53305 8.87656 2.49235C9.79986 3.45234 10.3227 4.75925 10.3238 6.12656C10.325 7.49388 9.80451 8.8018 8.88285 9.76355C7.96186 10.7246 6.71652 11.2612 5.42204 11.2624L5.41911 11.2625M5.4132 1L5.41911 11.2625M5.41911 11.2625C2.72437 11.2808 0.498097 8.98758 0.500001 6.08082L5.41911 11.2625ZM7.03337 23.7369L6.58528 23.5151C6.43418 23.8203 6.13949 24 5.83066 24H5.19129C4.88235 24 4.58757 23.8204 4.4361 23.5154C4.33852 23.3171 4.188 23.1491 4.00037 23.0312C3.81228 22.9129 3.59473 22.8498 3.37222 22.8498C3.14972 22.8498 2.93217 22.9129 2.74407 23.0312C2.55606 23.1494 2.40528 23.3178 2.30771 23.5167L2.7566 23.7369L2.30852 23.5151C2.15742 23.8203 1.86273 24 1.55389 24H1.28855C1.01391 24 0.75771 23.7625 0.75771 23.4274V14.4537C0.75771 14.1185 1.01391 13.8811 1.28855 13.8811H3.73548C3.94328 13.8811 4.14591 13.9848 4.27599 14.1725C4.41595 14.3765 4.61617 14.528 4.83559 14.627C5.05626 14.7265 5.30159 14.7757 5.54545 14.7757C5.78931 14.7757 6.03463 14.7265 6.2553 14.627C6.47519 14.5278 6.67578 14.3759 6.81578 14.1712L6.40318 13.889L6.81457 14.173C6.94434 13.985 7.14692 13.8811 7.35468 13.8811H9.793C10.0676 13.8811 10.3238 14.1185 10.3238 14.4537V23.4274C10.3238 23.7625 10.0676 24 9.793 24H9.46804C9.15918 24 8.86446 23.8205 8.71296 23.5156C8.61537 23.3172 8.46481 23.1492 8.27713 23.0312C8.08904 22.9129 7.87149 22.8498 7.64898 22.8498C7.42647 22.8498 7.20893 22.9129 7.02084 23.0312L7.287 23.4544L7.02083 23.0312C6.83282 23.1494 6.68204 23.3178 6.58447 23.5167L7.03337 23.7369ZM7.03337 23.7369C6.80137 24.2055 6.33723 24.5 5.83066 24.5H5.19129C4.68452 24.5 4.22017 24.2056 3.98784 23.7369H7.03337ZM20.8198 7.38106L20.8208 7.38218C21.2015 7.80671 21.5793 8.2251 21.9565 8.64274C22.3952 9.12856 22.833 9.61336 23.2732 10.1056L23.2732 10.1056L23.2788 10.1117C23.3902 10.2322 23.4566 10.3905 23.4643 10.5584C23.472 10.7264 23.4202 10.8907 23.32 11.0216L23.3187 11.0232C23.2577 11.1035 23.1789 11.1667 23.0897 11.2079C23.0005 11.2492 22.9032 11.2674 22.806 11.2615L22.7908 11.2605H22.7755H14.5128C14.2644 11.2605 14.1119 11.2031 14.0179 11.1339C13.9281 11.0677 13.8456 10.957 13.7978 10.7569L13.798 10.7568L13.7947 10.7446C13.7651 10.6331 13.7645 10.5155 13.793 10.4037C13.8215 10.2919 13.878 10.1904 13.9559 10.1088L13.9618 10.1026L13.9674 10.0963C14.7591 9.20921 15.5511 8.3247 16.3435 7.44278C16.6675 7.08278 16.875 6.66535 16.8792 6.20477C16.8833 5.74261 16.6819 5.32216 16.3561 4.95927C16.1898 4.77392 16.0235 4.5887 15.8573 4.40349C15.2264 3.70073 14.5958 2.99829 13.9685 2.29077L13.9682 2.29043C13.6433 1.92473 13.7527 1.41248 14.0855 1.22469C14.1993 1.16905 14.3237 1.14086 14.4494 1.14197V1.14205L14.4582 1.14197C15.5131 1.1327 16.5666 1.1337 17.6233 1.13471C17.9541 1.13502 18.2853 1.13534 18.6169 1.13534C19.076 1.13534 19.5356 1.13595 19.9957 1.13657C20.9168 1.1378 21.8393 1.13903 22.7612 1.13534C22.9549 1.13546 23.0841 1.17349 23.1718 1.22581C23.2541 1.27496 23.3341 1.35683 23.3986 1.51136C23.4671 1.67555 23.4786 1.81229 23.4576 1.92869C23.4365 2.04586 23.3764 2.17536 23.2504 2.31439C22.438 3.21007 21.6282 4.10798 20.8209 5.0081C20.5146 5.34949 20.3395 5.75957 20.3397 6.19456C20.3399 6.6293 20.5152 7.03924 20.8198 7.38106ZM13.6432 14.4042C13.6432 14.069 13.8994 13.8316 14.1741 13.8316H22.9691C23.2438 13.8316 23.5 14.069 23.5 14.4042V21.245C23.5 21.5802 23.2438 21.8177 22.9691 21.8177C22.1536 21.8177 21.526 22.4998 21.526 23.299V23.4274C21.526 23.7625 21.2698 24 20.9952 24H16.148C15.8734 24 15.6172 23.7625 15.6172 23.4274V23.299C15.6172 22.4998 14.9896 21.8177 14.1741 21.8177C13.8994 21.8177 13.6432 21.5802 13.6432 21.245V14.4042Z" stroke="white" stroke-opacity="0.1"/>
</svg>
