<svg width="58" height="58" viewBox="0 0 58 58" fill="none" xmlns="http://www.w3.org/2000/svg">
<path d="M13.3766 0.688482C16.7989 0.685286 20.0823 2.08569 22.5045 4.58163C24.9266 7.07756 26.2891 10.4646 26.2922 13.9976C26.2953 17.5305 24.9388 20.9201 22.521 23.4206C20.1032 25.921 16.8223 27.3275 13.3999 27.3307C6.24631 27.3789 0.451847 21.3623 0.457035 13.8891C0.464816 6.61672 6.26966 0.688482 13.3766 0.688482Z" fill="white"/>
<path d="M44.8932 1.00863C48.1907 1.00863 51.4855 1.02175 54.783 1.00863C56.0133 1.00863 56.9283 1.48631 57.4079 2.62542C57.8876 3.76453 57.6894 4.84327 56.837 5.77503C54.8994 7.89226 52.9679 10.0148 51.0424 12.1425C49.9163 13.3866 49.9189 14.9299 51.0424 16.1792C52.9896 18.3315 54.9524 20.468 56.897 22.6228C57.3556 23.1145 57.6246 23.7549 57.6557 24.4286C57.6868 25.1023 57.4778 25.7651 57.0664 26.2974C56.8036 26.6404 56.4615 26.9134 56.0698 27.0928C55.6782 27.2721 55.2489 27.3522 54.8195 27.3262H35.0973C33.5489 27.3262 32.5636 26.6123 32.23 25.2265C32.107 24.7676 32.1046 24.2844 32.2229 23.8243C32.3413 23.3642 32.5764 22.9429 32.9051 22.6018C34.7958 20.5021 36.6874 18.4085 38.5798 16.321C39.8597 14.9115 39.8832 13.4338 38.6085 12.027C36.7082 9.92727 34.8002 7.82752 32.9051 5.70941C31.6747 4.33671 31.9641 2.1976 33.5229 1.35507C33.9684 1.13327 34.4595 1.02 34.9566 1.02438C38.2696 0.995504 41.5801 1.00863 44.8932 1.00863Z" fill="white"/>
<path d="M34.2888 31.0427C32.9299 31.0427 31.8283 32.1787 31.8283 33.58V49.7626C31.8283 51.164 32.9299 52.3 34.2888 52.3C35.5321 52.3 36.5399 53.3393 36.5399 54.6214V54.9251C36.5399 56.3265 37.6415 57.4625 39.0004 57.4625H50.57C51.9289 57.4625 53.0305 56.3265 53.0305 54.9251V54.6214C53.0305 53.3393 54.0383 52.3 55.2816 52.3C56.6405 52.3 57.7421 51.164 57.7421 49.7626V33.58C57.7421 32.1787 56.6404 31.0427 55.2816 31.0427H34.2888Z" fill="white"/>
<path d="M18.0118 31.1597C17.1113 31.1597 16.2658 31.6069 15.7405 32.3611C15.5507 32.636 15.2587 32.8672 14.8971 33.0288C14.5355 33.1904 14.1186 33.2761 13.6933 33.2761C13.2681 33.2761 12.8512 33.1904 12.4896 33.0288C12.128 32.8672 11.8359 32.636 11.6462 32.3611C11.1201 31.6068 10.2742 31.1597 9.37316 31.1597H3.53265C2.17375 31.1597 1.07215 32.2957 1.07215 33.6971V54.9251C1.07215 56.3265 2.17375 57.4625 3.53265 57.4625H4.16599C5.37513 57.4625 6.48296 56.7659 7.03671 55.6574C7.17288 55.3823 7.38253 55.1509 7.64209 54.9891C7.90166 54.8274 8.20086 54.7417 8.50612 54.7417C8.81137 54.7417 9.11058 54.8274 9.37014 54.9891C9.6297 55.1509 9.83934 55.3823 9.97551 55.6574C10.5301 56.766 11.6384 57.4625 12.848 57.4625H14.3741C15.5832 57.4625 16.6911 56.7659 17.2448 55.6574C17.381 55.3823 17.5906 55.1509 17.8502 54.9891C18.1098 54.8274 18.409 54.7417 18.7142 54.7417C19.0195 54.7417 19.3187 54.8274 19.5782 54.9891C19.8378 55.1509 20.0474 55.3823 20.1836 55.6574C20.7382 56.766 21.8465 57.4625 23.0561 57.4625H23.8317C25.1906 57.4625 26.2922 56.3265 26.2922 54.9251V33.6971C26.2922 32.2957 25.1906 31.1597 23.8317 31.1597H18.0118Z" fill="white"/>
<path d="M13.377 1.18848L13.3766 1.18848C6.55616 1.18848 0.964632 6.88245 0.957035 13.8895L13.377 1.18848ZM13.377 1.18848C16.6615 1.18541 19.8161 2.52927 22.1457 4.92984C24.4758 7.33095 25.7892 10.5926 25.7922 13.998C25.7952 17.4034 24.4875 20.6675 22.1615 23.073C19.8361 25.4779 16.684 26.8277 13.3994 26.8307L13.3965 26.8308M13.377 1.18848L13.3965 26.8308M13.3965 26.8308C6.54108 26.8769 0.952122 21.1061 0.957034 13.8897L13.3965 26.8308ZM7.03671 55.6574L6.5886 55.4356C6.76583 55.0776 7.03893 54.7759 7.37764 54.5648C7.71639 54.3537 8.10719 54.2417 8.50612 54.2417C8.90505 54.2417 9.29585 54.3537 9.63459 54.5648C9.97303 54.7757 10.2459 55.0771 10.4232 55.4347M7.03671 55.6574L10.4236 55.4356C10.4235 55.4353 10.4233 55.435 10.4232 55.4347M7.03671 55.6574C7.17288 55.3823 7.38253 55.1509 7.64209 54.9891C7.90166 54.8274 8.20086 54.7417 8.50612 54.7417L7.03671 55.6574ZM7.03671 55.6574L6.58942 55.434C6.11767 56.3783 5.17979 56.9625 4.16599 56.9625H3.53265C2.46429 56.9625 1.57215 56.0649 1.57215 54.9251V33.6971C1.57215 32.5573 2.46429 31.6597 3.53265 31.6597H9.37316C10.1063 31.6597 10.8005 32.0233 11.2355 32.6462L7.03671 55.6574ZM10.4232 55.4347C10.8958 56.3787 11.834 56.9625 12.848 56.9625H14.3741C15.3876 56.9625 16.3252 56.3787 16.7971 55.4349M10.4232 55.4347L16.7971 55.4349M16.7971 55.4349C16.9743 55.0772 17.2473 54.7757 17.5858 54.5648C17.9245 54.3537 18.3153 54.2417 18.7142 54.2417C19.1132 54.2417 19.504 54.3537 19.8427 54.5648C20.1811 54.7757 20.454 55.0771 20.6313 55.4347C21.1039 56.3787 22.0421 56.9625 23.0561 56.9625H23.8317C24.9001 56.9625 25.7922 56.0649 25.7922 54.9251V33.6971C25.7922 32.5573 24.9001 31.6597 23.8317 31.6597H18.0118C17.2788 31.6597 16.5849 32.0236 16.1507 32.6469L16.7971 55.4349ZM50.6706 16.5136L50.6716 16.5147C51.5744 17.5126 52.4763 18.5024 53.3775 19.4915C54.4278 20.6441 55.4771 21.7957 56.5258 22.9578L56.5257 22.9578L56.5314 22.9639C56.9087 23.3684 57.1306 23.896 57.1562 24.4516C57.1818 25.0073 57.0094 25.5534 56.6708 25.9916L56.6695 25.9933C56.4562 26.2716 56.1788 26.4929 55.8617 26.6382C55.5446 26.7834 55.1972 26.8482 54.8497 26.8272L54.8346 26.8262H54.8195H35.0973C34.3982 26.8262 33.877 26.6654 33.503 26.3923C33.1336 26.1225 32.8603 25.7087 32.7161 25.1095L32.7162 25.1094L32.7129 25.0971C32.6122 24.7213 32.6102 24.3256 32.7071 23.9488C32.8041 23.5721 32.9965 23.2275 33.2651 22.9488L33.271 22.9427L33.2767 22.9364C35.1669 20.8372 37.058 18.7441 38.95 16.6571C39.646 15.8906 40.0442 15.0561 40.0521 14.1775C40.0601 13.2973 39.6755 12.4599 38.979 11.6913C38.5827 11.2533 38.1861 10.8155 37.7895 10.3776C36.2836 8.71506 34.7767 7.0514 33.2777 5.37602L33.2774 5.37569C32.2405 4.21882 32.5164 2.4737 33.7533 1.7989C34.1264 1.61467 34.5369 1.5207 34.9522 1.52436V1.52443L34.9609 1.52436C37.4825 1.50238 40.0018 1.50476 42.5248 1.50714C43.3139 1.50788 44.1033 1.50863 44.8932 1.50863C45.991 1.50863 47.0893 1.51008 48.1878 1.51154C50.3857 1.51446 52.5848 1.51738 54.784 1.50863C55.3359 1.50875 55.7773 1.61603 56.1224 1.82017C56.4619 2.02109 56.7438 2.33672 56.9471 2.81945C57.1545 3.312 57.2065 3.76798 57.1301 4.18851C57.0534 4.60989 56.8416 5.02929 56.4682 5.43746C54.5299 7.55538 52.5978 9.67854 50.6717 11.807C50.0379 12.5072 49.6984 13.3201 49.6988 14.1591C49.6992 14.9979 50.0392 15.8114 50.6706 16.5136ZM32.3283 33.58C32.3283 32.4402 33.2205 31.5427 34.2888 31.5427H55.2816C56.3499 31.5427 57.2421 32.4402 57.2421 33.58V49.7626C57.2421 50.9024 56.3499 51.8 55.2816 51.8C53.7478 51.8 52.5305 53.0778 52.5305 54.6214V54.9251C52.5305 56.0649 51.6383 56.9625 50.57 56.9625H39.0004C37.9321 56.9625 37.0399 56.065 37.0399 54.9251V54.6214C37.0399 53.0778 35.8226 51.8 34.2888 51.8C33.2205 51.8 32.3283 50.9024 32.3283 49.7626V33.58Z" stroke="white" stroke-opacity="0.1"/>
</svg>
