<svg width="26" height="32" viewBox="0 0 26 32" fill="none" xmlns="http://www.w3.org/2000/svg">
<path d="M16.0102 26C10.4383 25.9564 5.99767 21.5808 6 15.9895C6.00233 10.4122 10.429 6.00757 15.991 6.00001C21.5611 5.99245 26.0029 10.407 26 15.9994C25.9971 21.5773 21.574 25.9494 16.0102 25.9994V26ZM17.8034 14.4169C17.9142 14.4169 17.9725 14.4169 18.0302 14.4169C18.4308 14.414 18.53 14.3006 18.4139 13.925C18.1877 13.193 17.7608 12.607 17.0062 12.3826C16.6528 12.2779 16.5642 12.1355 16.5764 11.7913C16.6033 11.0448 16.5123 10.9808 15.767 11.0506C15.5472 11.0709 15.4282 11.1785 15.4201 11.3988C15.4137 11.5733 15.4014 11.7494 15.4195 11.9215C15.4463 12.1785 15.3618 12.3099 15.0918 12.3518C14.7728 12.4006 14.4859 12.55 14.2258 12.7419C13.5324 13.2552 13.2449 13.9488 13.354 14.7965C13.4607 15.6227 14.0013 16.0581 14.7576 16.2785C14.8964 16.3192 15.0364 16.3564 15.1775 16.3878C15.7046 16.5058 16.251 16.5331 16.7613 16.7302C17.0937 16.8587 17.3561 17.0448 17.4191 17.4314C17.5077 17.9779 17.2581 18.4512 16.7333 18.6692C16.247 18.8709 15.7507 18.8465 15.2562 18.6907C14.8544 18.564 14.5803 18.2913 14.4882 17.8901C14.4118 17.5581 14.2462 17.4279 13.9202 17.4657C13.8339 17.4756 13.7459 17.4669 13.6584 17.4674C13.2438 17.4698 13.1511 17.5983 13.2537 18.0111C13.4805 18.9233 14.1144 19.3988 14.981 19.6244C15.4142 19.7372 15.4142 19.7343 15.4154 20.1895C15.4177 20.8802 15.2947 20.9651 16.2236 20.9401C16.2429 20.9401 16.2621 20.9378 16.2819 20.9372C16.4715 20.932 16.5654 20.8233 16.5753 20.6448C16.5858 20.4517 16.5968 20.2564 16.5805 20.064C16.5584 19.8081 16.64 19.6843 16.9106 19.632C17.3334 19.55 17.7042 19.3407 18.0384 19.0616C19.0233 18.2384 19.0525 16.1657 17.3771 15.7029C17.1724 15.6465 16.9677 15.5895 16.7601 15.5459C16.2592 15.4413 15.7402 15.4279 15.255 15.2477C14.785 15.0733 14.5733 14.7657 14.5938 14.3029C14.6136 13.8547 14.8713 13.5424 15.3384 13.4186C15.7105 13.3204 16.0866 13.3291 16.4586 13.4227C16.7881 13.5052 17.0575 13.6954 17.1677 14.0128C17.2914 14.3692 17.5124 14.475 17.8028 14.4163L17.8034 14.4169ZM23.4797 16.2349C23.4558 15.0907 23.2598 14.0419 22.7986 13.0535C21.8789 11.0831 20.3896 9.74071 18.3352 9.02268C18.1492 8.95757 18.018 8.96629 17.9352 9.16454C17.7206 9.67792 17.9212 10.1849 18.4256 10.3977C21.0357 11.4983 22.6166 14.2552 22.1653 17.0209C21.7839 19.3587 20.4858 21.0151 18.2874 21.9349C18.0121 22.05 17.8903 22.2192 17.8903 22.5012C17.8903 22.6076 17.8873 22.7145 17.8903 22.8209C17.9031 23.2407 18.0191 23.3221 18.4116 23.1901C21.4229 22.1779 23.4587 19.3599 23.4797 16.2349V16.2349ZM14.1074 9.57792C14.1074 9.49071 14.115 9.40292 14.1062 9.31629C14.0736 9.00815 13.954 8.9314 13.6619 9.02443C10.857 9.92036 8.80374 12.4616 8.58157 15.3826C8.41012 17.6401 9.09065 19.6238 10.6581 21.2767C11.4856 22.1494 12.4828 22.768 13.6222 23.1558C13.7604 23.2029 13.9039 23.2576 14.0211 23.1134C14.2789 22.7965 14.0905 22.0407 13.7074 21.893C11.3165 20.9704 9.51518 18.4267 9.81724 15.5523C10.0744 13.1041 11.3381 11.3599 13.5908 10.3483C14.0893 10.1244 14.1092 10.1151 14.1068 9.57792H14.1074Z" fill="#2858FF"/>
<rect x="0.25" y="0.25" width="31.5" height="31.5" rx="15.75" stroke="white" stroke-opacity="0.1" stroke-width="0.5"/>
</svg>
