<svg width="32" height="32" viewBox="0 0 32 32" fill="none" xmlns="http://www.w3.org/2000/svg">
<path d="M15.9982 2.54541L15.8672 3.13774V20.3257L15.9982 20.4996L21.9964 15.7836L15.9982 2.54541Z" fill="white"/>
<path d="M15.9982 2.54541L12.9991 9.1645L10 15.7836L15.9982 20.4997V12.1572V2.54541Z" fill="#959595"/>
<path d="M15.9986 22.0105L15.9248 22.1303V28.253L15.9986 28.5398L22.0005 17.2969L15.9986 22.0105Z" fill="white"/>
<path d="M15.9982 28.5398V22.0105L10 17.2969L15.9982 28.5398Z" fill="#959595"/>
<path d="M15.998 20.4996L21.9962 15.7836L15.998 12.1572V20.4996Z" fill="#D9D9D9"/>
<path d="M10 15.7836L15.9981 20.4997V12.1572L10 15.7836Z" fill="#848282"/>
<rect x="0.25" y="0.25" width="31.5" height="31.5" rx="15.75" stroke="white" stroke-opacity="0.1" stroke-width="0.5"/>
</svg>
