<svg width="248" height="248" viewBox="0 0 248 248" fill="none" xmlns="http://www.w3.org/2000/svg">
<rect width="248" height="248" rx="24" fill="white"/>
<path fill-rule="evenodd" clip-rule="evenodd" d="M20 20H29.9008H29.9575H39.8062H39.8583H49.7068H49.7638H59.6076H59.6643H69.513H69.5651H79.4135H79.4705H89.3711V29.9003V29.9573V39.8057V39.8575V49.707V49.763V59.6073V59.6643V69.5128V69.5646V79.4141V79.47V89.3713H79.4705H79.4135H69.5651H69.513H59.6643H59.6076H49.7638H49.7068H39.8583H39.8062H29.9575H29.9008H20V79.47V79.4141V69.5646V69.5128V59.6643V59.6073V49.763V49.707V39.8575V39.8057V29.9573V29.9003V20ZM79.4135 79.4141V69.5646V69.5128V59.6643V59.6073V49.763V49.707V39.8575V39.8057V29.9573H69.5651H69.513H59.6643H59.6076H49.7638H49.7068H39.8583H39.8062H29.9575V39.8057V39.8575V49.707V49.763V59.6073V59.6643V69.5128V69.5646V79.4141H39.8062H39.8583H49.7068H49.7638H59.6076H59.6643H69.513H69.5651H79.4135ZM109.121 20H119.021H119.078H128.922H128.979H138.827H138.879H148.785V29.9573H138.879V39.8575H128.922V29.9573H119.078V39.8057V39.8575V49.707H128.922H128.979H138.879V59.6073H148.785V69.5128V69.5646V79.4141V79.47V89.3143V89.3713V99.2198V99.2716V109.12V109.177V119.021H158.629V109.12H168.586V119.021V119.077V128.979H158.686V138.827V138.879V148.728H168.586V158.629H178.435V148.728H188.336V138.879H178.435V128.922H188.336V119.077V119.021V109.177H178.435V99.2198H188.336H188.392H198.293V109.12V109.177V119.021V119.077V128.922H208.142V119.021H218.099V128.922H228V138.827V138.879V148.728V148.784V158.686H218.099V168.586H208.198V178.491H198.293H198.241H188.392H188.336H178.492H178.435H168.586V188.336V188.392V198.241V198.293V208.198H158.629V198.293H148.785H148.728H138.827V188.392V188.336V178.491H128.979V188.392H119.078V198.241H128.979V208.141V208.198V218.043H138.879V228H128.979H128.922H119.078H119.021H109.177H109.121H99.2198V218.099V218.043V208.141H109.177V218.043H119.021V208.198V208.141V198.293H109.121V188.336H119.021V178.491V178.434V168.586H109.177V178.491H99.2198V168.586V168.534V158.686V158.629V148.784H89.3711H89.3143H79.4705H79.4135H69.513V138.827H79.4135H79.4705H89.3143V128.979H79.4135V119.021H89.3143H89.3711H99.2198H99.2719H109.121V109.177V109.12V99.2716V99.2198V89.3713H99.2198V79.4141H109.177V89.3143H119.021V79.47V79.4141V69.5646V69.5128V59.6643H109.177V69.5646H99.2198V59.6643V59.6073V49.707H109.121V39.8575V39.8057V29.9573V29.9003V20ZM158.629 188.336V178.491H148.785V188.336H158.629ZM198.293 168.534H208.142V158.629H218.042V148.784V148.728V138.879H208.198H208.142H198.293V148.728V148.784V158.629V158.686V168.534ZM188.336 158.686V168.534H178.492V158.686H188.336ZM138.827 168.534V158.686H128.979V168.534H138.827ZM119.021 158.629V148.784V148.728V138.879H109.177H109.121H99.2719V148.728H109.177V158.629H119.021ZM148.728 148.728V138.879V138.827V128.979V128.922V119.077H138.879V128.979H128.979V138.827V138.879V148.728H138.827H138.879H148.728ZM119.021 128.922V119.077H109.177V128.922H119.021ZM138.827 109.177V119.021H128.979V109.12H119.078V99.2716H128.922H128.979H138.827V109.12V109.177ZM138.827 89.3143V79.47V79.4141V69.5646H128.979V79.4141V79.47V89.3143H138.827ZM158.629 20H168.534H168.586H178.435H178.492H188.336H188.392H198.241H198.293H208.142H208.198H218.042H218.099H228V29.9003V29.9573V39.8057V39.8575V49.707V49.763V59.6073V59.6643V69.5128V69.5646V79.4141V79.47V89.3713H218.099H218.042H208.198H208.142H198.293H198.241H188.392H188.336H178.492H178.435H168.586H168.534H158.629V79.47V79.4141V69.5646V69.5128V59.6643V59.6073V49.763V49.707V39.8575V39.8057V29.9573V29.9003V20ZM218.042 79.4141V69.5646V69.5128V59.6643V59.6073V49.763V49.707V39.8575V39.8057V29.9573H208.198H208.142H198.293H198.241H188.392H188.336H178.492H178.435H168.586V39.8057V39.8575V49.707V49.763V59.6073V59.6643V69.5128V69.5646V79.4141H178.435H178.492H188.336H188.392H198.241H198.293H208.142H208.198H218.042ZM39.8062 39.8057H49.7068H49.7638H59.6076H59.6643H69.5651V49.707V49.763V59.6073V59.6643V69.5646H59.6643H59.6076H49.7638H49.7068H39.8062V59.6643V59.6073V49.763V49.707V39.8057ZM178.435 39.8057H188.336H188.392H198.241H198.293H208.198V49.707V49.763V59.6073V59.6643V69.5646H198.293H198.241H188.392H188.336H178.435V59.6643V59.6073V49.763V49.707V39.8057ZM29.9008 99.2198H20V109.12V109.177V119.021V119.077V128.922V128.979V138.879H29.9008H29.9575H39.8062V148.784H49.7068H49.7638H59.6643V138.879V138.827V128.979V128.922V119.077H69.5651V109.177H79.4135H79.4705H89.3143H89.3711H99.2719V99.2198H89.3711H89.3143H79.4705H79.4135H69.513V109.12H59.6076V119.021H49.7638H49.7068H39.8583V109.177V109.12V99.2198H29.9575H29.9008ZM49.7068 138.827V128.979H39.8583V138.827H49.7068ZM39.8062 128.922H29.9575V119.077H39.8062V128.922ZM29.9008 158.629H20V168.534V168.586V178.434V178.491V188.336V188.392V198.241V198.293V208.141V208.198V218.043V218.099V228H29.9008H29.9575H39.8062H39.8583H49.7068H49.7638H59.6076H59.6643H69.513H69.5651H79.4135H79.4705H89.3711V218.099V218.043V208.198V208.141V198.293V198.241V188.392V188.336V178.491V178.434V168.586V168.534V158.629H79.4705H79.4135H69.5651H69.513H59.6643H59.6076H49.7638H49.7068H39.8583H39.8062H29.9575H29.9008ZM79.4135 218.043V208.198V208.141V198.293V198.241V188.392V188.336V178.491V178.434V168.586H69.5651H69.513H59.6643H59.6076H49.7638H49.7068H39.8583H39.8062H29.9575V178.434V178.491V188.336V188.392V198.241V198.293V208.141V208.198V218.043H39.8062H39.8583H49.7068H49.7638H59.6076H59.6643H69.513H69.5651H79.4135ZM39.8062 178.434H49.7068H49.7638H59.6076H59.6643H69.5651V188.336V188.392V198.241V198.293V208.198H59.6643H59.6076H49.7638H49.7068H39.8062V198.293V198.241V188.392V188.336V178.434ZM228 178.434H218.042V188.392H228V178.434ZM188.336 188.336H178.435V198.241V198.293V208.198H188.336V218.043H178.435V228H188.392V218.099H198.241H198.293H208.142V228H218.099V218.043H208.198V208.198H218.042H218.099H228V198.241H218.099H218.042H208.198V188.336H198.293H198.241H188.392H188.336ZM198.293 208.141H198.241H188.392V198.293H198.241H198.293H208.142V208.141H198.293Z" fill="black"/>
<rect x="0.5" y="0.5" width="247" height="247" rx="23.5" stroke="black" stroke-opacity="0.1"/>
</svg>
