<svg width="16" height="17" viewBox="0 0 16 17" fill="none" xmlns="http://www.w3.org/2000/svg">
<path d="M11.3739 9.07008C11.3498 9.23123 11.229 9.34001 11.0801 9.34001C10.9312 9.34001 10.8105 9.23123 10.7863 9.07008C10.416 6.39094 10.0619 6.06058 7.44183 5.71411C7.27682 5.69799 7.1601 5.57713 7.1601 5.42001C7.1601 5.26288 7.27682 5.14202 7.44183 5.12188C10.0619 4.83583 10.4402 4.4531 10.7863 1.7659C10.8105 1.60475 10.9312 1.5 11.0801 1.5C11.229 1.5 11.3498 1.60475 11.3739 1.7659C11.72 4.4531 12.0983 4.83583 14.7184 5.12188C14.8834 5.14202 15.0001 5.26288 15.0001 5.42001C15.0001 5.57713 14.8834 5.69799 14.7184 5.71411C12.0983 6.00418 11.72 6.38691 11.3739 9.07008Z" fill="white"/>
<path d="M5.21381 15.2301C5.18966 15.3912 5.06892 15.5 4.92001 15.5C4.77109 15.5 4.65036 15.3912 4.62621 15.2301C4.25594 12.5509 3.90177 12.2206 1.28173 11.8741C1.11672 11.858 1 11.7371 1 11.58C1 11.4229 1.11672 11.302 1.28173 11.2819C3.90177 10.9958 4.28009 10.6131 4.62621 7.92589C4.65036 7.76474 4.77109 7.65999 4.92001 7.65999C5.06892 7.65999 5.18966 7.76474 5.21381 7.92589C5.55993 10.6131 5.93824 10.9958 8.55829 11.2819C8.7233 11.302 8.84001 11.4229 8.84001 11.58C8.84001 11.7371 8.7233 11.858 8.55829 11.8741C5.93824 12.1642 5.55993 12.5469 5.21381 15.2301Z" fill="white"/>
</svg>
