<svg width="24" height="24" viewBox="0 0 24 24" fill="none" xmlns="http://www.w3.org/2000/svg">
<path fill-rule="evenodd" clip-rule="evenodd" d="M10.6713 3.68096L3.67127 9.90319C3.2443 10.2827 3 10.8267 3 11.398V18.9999C3 20.1044 3.89543 20.9999 5 20.9999H8.625V15.7499C8.625 14.6453 9.52043 13.7499 10.625 13.7499H13.375C14.4796 13.7499 15.375 14.6453 15.375 15.7499V20.9999H19C20.1046 20.9999 21 20.1044 21 18.9999V11.398C21 10.8267 20.7557 10.2827 20.3287 9.90319L13.3287 3.68096C12.571 3.00739 11.429 3.00739 10.6713 3.68096Z" fill="white"/>
<path d="M3.67127 9.90319L4.16954 10.4637L4.16955 10.4637L3.67127 9.90319ZM10.6713 3.68096L10.173 3.12041V3.12041L10.6713 3.68096ZM8.625 20.9999V21.7499H9.375V20.9999H8.625ZM15.375 20.9999H14.625V21.7499H15.375V20.9999ZM20.3287 9.90319L19.8305 10.4637L19.8305 10.4637L20.3287 9.90319ZM13.3287 3.68096L13.827 3.12041V3.12041L13.3287 3.68096ZM4.16955 10.4637L11.1695 4.24152L10.173 3.12041L3.173 9.34263L4.16955 10.4637ZM3.75 11.398C3.75 11.041 3.90268 10.701 4.16954 10.4637L3.173 9.34263C2.58591 9.86449 2.25 10.6125 2.25 11.398H3.75ZM3.75 18.9999V11.398H2.25V18.9999H3.75ZM5 20.2499C4.30964 20.2499 3.75 19.6902 3.75 18.9999H2.25C2.25 20.5187 3.48122 21.7499 5 21.7499V20.2499ZM8.625 20.2499H5V21.7499H8.625V20.2499ZM7.875 15.7499V20.9999H9.375V15.7499H7.875ZM10.625 12.9999C9.10622 12.9999 7.875 14.2311 7.875 15.7499H9.375C9.375 15.0595 9.93464 14.4999 10.625 14.4999V12.9999ZM13.375 12.9999H10.625V14.4999H13.375V12.9999ZM16.125 15.7499C16.125 14.2311 14.8938 12.9999 13.375 12.9999V14.4999C14.0654 14.4999 14.625 15.0595 14.625 15.7499H16.125ZM16.125 20.9999V15.7499H14.625V20.9999H16.125ZM19 20.2499H15.375V21.7499H19V20.2499ZM20.25 18.9999C20.25 19.6902 19.6904 20.2499 19 20.2499V21.7499C20.5188 21.7499 21.75 20.5187 21.75 18.9999H20.25ZM20.25 11.398V18.9999H21.75V11.398H20.25ZM19.8305 10.4637C20.0973 10.701 20.25 11.041 20.25 11.398H21.75C21.75 10.6125 21.4141 9.86449 20.827 9.34263L19.8305 10.4637ZM12.8305 4.24152L19.8305 10.4637L20.827 9.34263L13.827 3.12041L12.8305 4.24152ZM11.1695 4.24152C11.6432 3.82054 12.3568 3.82054 12.8305 4.24152L13.827 3.12041C12.7851 2.19424 11.2149 2.19424 10.173 3.12041L11.1695 4.24152Z" fill="white"/>
</svg>
