<svg width="25" height="24" viewBox="0 0 25 24" fill="none" xmlns="http://www.w3.org/2000/svg">
<path d="M10.8078 13.6923L15.6539 8.84619M20.6113 5.88867L16.5207 19.1833C16.1541 20.3747 15.9706 20.9707 15.6544 21.1683C15.3802 21.3396 15.0406 21.3683 14.7419 21.2443C14.3975 21.1014 14.118 20.5433 13.5603 19.428L10.9694 14.2461C10.8809 14.0691 10.8366 13.981 10.7775 13.9043C10.725 13.8363 10.6645 13.7749 10.5965 13.7225C10.5215 13.6647 10.4349 13.6214 10.2658 13.5369L5.07192 10.9399C3.95662 10.3823 3.39892 10.1032 3.25601 9.75879C3.13207 9.4601 3.16033 9.12023 3.33169 8.84597C3.52928 8.52974 4.12523 8.34603 5.31704 7.97932L18.6116 3.88867C19.5486 3.60038 20.0173 3.45635 20.3337 3.57253C20.6094 3.67373 20.8267 3.89084 20.9279 4.16651C21.044 4.48283 20.8999 4.95126 20.6119 5.88729L20.6113 5.88867Z" stroke="white" stroke-width="2" stroke-linecap="round" stroke-linejoin="round"/>
</svg>
